<svg width="177" height="177" version="1.1" xmlns="http://www.w3.org/2000/svg" xmlns:xlink="http://www.w3.org/1999/xlink"><path d="M130.45 36.28L130.45 37.35L109.21 50.80Q108.32 51.15 107.97 51.33L107.97 51.33L107.62 50.80L107.62 49.38L115.05 38.76Q116.29 36.28 116.82 33.98L116.82 33.98L117.35 29.38L117.35 29.20Q118.06 26.37 123.72 29.03L123.72 29.03Q129.56 31.86 130.45 36.28L130.45 36.28ZM159.83 112.04L160.89 113.46L159.83 114.34L142.13 116.11L134.52 115.76Q130.27 115.23 127.97 113.46L127.97 113.46Q122.31 109.39 103.72 85.84L103.72 85.84Q96.64 86.73 86.91 89.21L86.91 89.21Q86.55 89.74 80.89 100.00L80.89 100.00Q80.18 101.42 79.47 102.48L79.47 102.48Q69.91 117.70 60.89 122.48L60.89 122.48L59.65 122.31L59.83 120.36Q72.04 102.66 77.53 91.69L77.53 91.69Q64.96 94.16 61.60 92.57L61.60 92.57Q59.47 91.69 59.65 89.38L59.65 89.38Q66.55 87.61 80.00 85.49L80.00 85.49L84.78 72.39L75.58 71.15L72.75 69.91L71.33 68.50L72.39 67.44L86.38 64.78Q89.56 53.81 90.80 35.40L90.80 35.40Q90.98 32.21 90.98 30.27L90.98 30.27Q90.62 24.60 88.15 20.35L88.15 20.35Q88.15 17.88 90.09 17.35L90.09 17.35Q95.40 17.88 102.31 24.25L102.31 24.25L101.07 30.27L95.58 61.95Q98.06 62.30 106.20 58.59L106.20 58.59Q116.11 53.98 120.89 57.17L120.89 57.17Q121.42 57.52 121.95 58.06L121.95 58.06Q122.48 58.41 122.48 60.36L122.48 60.36L120.89 61.60L93.99 69.38Q91.16 76.82 89.03 83.19L89.03 83.19Q104.61 80.53 114.87 77.88L114.87 77.88L126.20 74.69Q126.55 74.69 127.09 74.69L127.09 74.69Q132.04 73.99 136.82 76.11L136.82 76.11Q140.01 77.53 141.95 79.83L141.95 79.83Q141.95 81.42 140.18 82.13L140.18 82.13Q136.11 83.54 118.59 84.61L118.59 84.61Q112.04 84.96 108.68 85.49L108.68 85.49Q125.67 100.54 159.83 112.04L159.83 112.04ZM81.77 50.98L81.77 50.98Q80.89 54.87 79.47 55.58L79.47 55.58Q76.46 55.58 72.57 51.33L72.57 51.33Q72.04 50.80 71.69 50.44L71.69 50.44Q71.51 49.56 68.85 45.67L68.85 45.67Q67.26 43.54 67.26 41.24L67.26 41.24Q70.45 38.94 77.17 44.78L77.17 44.78Q81.24 48.50 81.77 50.98ZM124.78 119.83L124.78 119.83Q124.61 120.71 122.84 123.19L122.84 123.19Q122.31 123.90 121.95 124.61L121.95 124.61Q119.83 129.56 116.82 144.61L116.82 144.61Q113.99 159.65 107.26 166.56L107.26 166.56L103.01 170.27L102.66 170.63Q100.18 170.63 98.23 168.33L98.23 168.33L89.56 156.64Q89.38 156.29 89.03 156.11L89.03 156.11L89.03 155.05L98.23 156.64Q100.71 156.64 102.66 155.05L102.66 155.05Q107.79 150.98 109.56 134.70L109.56 134.70Q110.45 126.55 109.39 122.48L109.39 122.48Q106.73 121.42 96.46 123.72L96.46 123.72Q95.58 123.90 95.05 124.08L95.05 124.08Q88.50 140.89 76.11 153.46L76.11 153.46Q69.03 160.54 62.30 163.37L62.30 163.37Q60.18 163.90 58.76 163.55L58.76 163.55L58.76 162.84Q71.15 151.33 85.14 126.91L85.14 126.91Q83.90 126.91 76.29 128.86L76.29 128.86Q68.85 130.80 65.84 125.85L65.84 125.85L66.73 125.14Q77.17 124.25 86.91 121.95L86.91 121.95Q89.03 113.81 88.68 103.90L88.68 103.90Q88.68 102.13 88.50 100.54L88.50 100.54Q89.38 99.12 94.16 100.18L94.16 100.18Q100.00 103.01 101.24 104.61L101.24 104.61Q101.07 107.08 97.53 115.93L97.53 115.93Q96.82 117.88 96.46 119.30L96.46 119.30Q103.54 118.06 111.16 114.34L111.16 114.34Q117.88 114.34 124.78 119.83ZM59.12 44.25L59.12 44.25L56.29 55.75L56.11 57.52L56.29 119.83L56.99 137.71Q56.46 148.68 50.45 153.99L50.45 153.99Q48.85 155.41 47.26 154.87L47.26 154.87Q46.55 154.52 45.67 153.81L45.67 153.81L31.86 137.17L44.78 139.30L45.13 139.30Q48.50 135.40 48.14 55.58L48.14 55.58Q48.14 47.26 45.84 45.13L45.84 45.13L44.60 44.60Q39.82 45.13 30.80 48.14L30.80 48.14Q30.27 59.65 30.27 70.98L30.27 70.98Q33.45 70.45 40.00 70.45L40.00 70.45Q44.07 72.22 44.07 74.16L44.07 74.16Q41.77 76.11 30.27 76.64L30.27 76.64L28.14 95.76Q27.97 96.29 27.79 97.00L27.79 97.00Q36.28 95.76 38.41 96.11L38.41 96.11Q41.59 96.64 43.19 98.94L43.19 98.94Q43.19 101.07 41.59 101.07L41.59 101.07L27.26 102.13Q20.36 133.28 5.84 149.21L5.84 149.21Q4.07 151.51 1.95 151.51L1.95 151.51L1.95 149.56Q21.59 112.57 21.59 82.84L21.59 82.84L21.42 77.53L21.42 77.35L21.95 56.99Q21.42 47.79 17.35 42.13L17.35 42.13Q17.35 40.36 18.41 40.00L18.41 40.00Q23.89 40.00 29.03 43.19L29.03 43.19Q33.28 43.19 41.42 39.65L41.42 39.65Q48.67 36.64 53.45 39.29L53.45 39.29Q56.11 40.89 59.12 44.25Z" stroke="#000" fill="black" /></svg>