<svg width="177" height="177" version="1.1" xmlns="http://www.w3.org/2000/svg" xmlns:xlink="http://www.w3.org/1999/xlink"><path d="M113.99 113.89L113.99 113.89L117.00 113.89Q124.61 117.08 130.27 117.78L130.27 117.78Q132.57 115.31 132.57 109.46L132.57 109.46L133.63 64.68L133.10 25.04Q133.10 16.72 130.09 14.59L130.09 14.59Q127.44 14.24 110.45 19.37L110.45 19.37Q109.74 19.55 109.39 19.73L109.39 19.73L108.50 21.14Q108.32 22.38 107.97 39.73L107.97 39.73Q107.79 42.91 107.62 45.39L107.62 45.39Q117.17 42.74 119.65 42.74L119.65 42.74Q124.61 42.56 127.09 45.57L127.09 45.57Q127.09 47.34 125.49 47.87L125.49 47.87Q123.02 48.75 110.27 50.35L110.27 50.35Q109.03 50.52 107.97 50.70L107.97 50.70L105.67 70.52Q118.59 66.10 123.72 68.22L123.72 68.22Q126.38 69.11 127.97 71.59L127.97 71.59Q127.44 73.71 107.97 75.66L107.97 75.66Q105.31 75.83 104.43 76.01L104.43 76.01Q102.31 88.76 94.87 106.10L94.87 106.10Q86.02 127.16 78.23 127.16L78.23 127.16Q79.30 123.09 85.14 111.23L85.14 111.23Q86.20 109.29 86.91 107.69L86.91 107.69Q99.12 79.37 99.12 53.18L99.12 53.18Q99.12 33.89 98.77 30.88L98.77 30.88Q97.88 20.26 94.16 14.24L94.16 14.24Q94.16 12.65 95.23 11.94L95.23 11.94Q100.36 11.94 105.31 14.77L105.31 14.77Q113.81 13.18 121.78 9.46L121.78 9.46L128.50 6.27Q129.21 5.92 130.09 5.92L130.09 5.92L133.63 6.45Q133.81 6.45 133.99 6.63L133.99 6.63Q138.94 8.22 143.90 11.94L143.90 11.94Q144.96 12.65 145.32 13.18L145.32 13.18Q146.03 14.42 143.90 19.19L143.90 19.19L143.19 21.14Q142.48 26.27 142.48 29.11L142.48 29.11L143.02 85.57L144.43 112.12Q144.43 117.25 143.72 120.62L143.72 120.62Q143.19 124.51 138.59 132.12L138.59 132.12Q137.17 134.42 136.47 134.95L136.47 134.95Q135.05 136.19 133.28 135.84L133.28 135.84Q132.57 135.66 131.86 135.13L131.86 135.13Q129.56 134.07 123.72 125.39L123.72 125.39Q123.02 124.16 122.48 123.62L122.48 123.62L114.87 115.31Q114.52 114.60 113.99 113.89ZM71.33 120.62L68.85 123.09Q66.20 122.74 64.60 121.15L64.60 121.15Q64.07 120.79 60.89 116.90L60.89 116.90Q60.71 116.54 60.36 116.19L60.36 116.19L50.98 106.10L50.80 105.92Q51.15 105.04 64.07 106.99L64.07 106.99Q66.55 103.62 66.73 94.60L66.73 94.60Q66.73 93.89 66.73 93.36L66.73 93.36Q67.79 61.50 67.79 60.79L67.79 60.79Q68.32 33.53 67.44 23.62L67.44 23.62Q67.26 20.96 65.49 19.19L65.49 19.19L48.14 23.27Q47.08 29.11 46.73 47.51L46.73 47.51Q58.41 45.04 62.66 48.22L62.66 48.22Q63.54 48.93 64.43 50.17L64.43 50.17Q64.07 51.05 62.66 51.76L62.66 51.76L47.08 53.36L46.55 53.89L44.60 72.29Q58.41 68.40 62.83 72.12L62.83 72.12Q63.54 72.83 64.07 73.71L64.07 73.71Q64.07 76.19 45.31 77.43L45.31 77.43Q44.25 77.60 43.90 77.60L43.90 77.60Q35.75 110.70 22.30 125.75L22.30 125.75Q20.00 128.76 17.35 128.93L17.35 128.93L17.35 126.63Q38.23 88.76 38.23 55.13L38.23 55.13L38.41 35.83Q37.70 24.33 33.81 18.31L33.81 18.31Q33.81 16.54 34.87 15.65L34.87 15.65Q39.47 15.65 44.60 18.66L44.60 18.66Q49.56 17.96 63.01 12.47L63.01 12.47Q64.60 11.94 65.84 11.41L65.84 11.41Q71.33 11.94 76.64 15.65L76.64 15.65Q77.88 16.54 78.59 17.25L78.59 17.25Q79.83 19.02 77.70 22.91L77.70 22.91Q76.82 24.68 76.64 25.57L76.64 25.57Q76.11 28.40 76.11 31.58L76.11 31.58L76.11 80.26L76.99 108.76Q76.99 114.07 71.33 120.62L71.33 120.62Z" stroke="#000" fill="black" /></svg>