<svg width="177" height="177" version="1.1" xmlns="http://www.w3.org/2000/svg" xmlns:xlink="http://www.w3.org/1999/xlink"><path d="M127.79 20.36L127.79 20.36Q127.79 21.95 125.14 25.49L125.14 25.49L124.25 27.08Q123.02 29.91 119.65 47.26L119.65 47.26Q118.06 55.76 116.64 57.88Q115.23 60.00 112.75 60.00L112.75 60.00Q111.51 59.47 107.26 55.05L107.26 55.05L91.69 57.53Q91.16 57.70 90.80 57.88L90.80 57.88L89.03 62.30Q88.68 62.84 87.97 63.01L87.97 63.01Q83.90 60.00 83.01 50.98L83.01 50.98Q82.66 47.26 82.30 45.67L82.30 45.67Q79.83 33.45 75.76 20.36L75.76 20.36L76.82 19.65Q81.42 20.18 85.14 21.95L85.14 21.95L113.63 13.10L117.88 13.45L125.85 18.41Q127.09 19.29 127.79 20.36ZM114.70 23.36L114.70 23.36Q113.28 16.64 87.97 26.37L87.97 26.37L86.55 26.90L87.97 38.23L91.33 35.75Q100.54 32.57 104.08 33.98L104.08 33.98Q105.67 34.52 106.73 35.93L106.73 35.93Q106.73 37.88 105.67 38.06L105.67 38.06L88.85 43.37L90.45 54.52Q102.48 49.74 109.21 49.74L109.21 49.74Q111.51 43.72 114.34 26.02L114.34 26.02Q114.52 24.60 114.70 23.36ZM157.18 65.84L157.18 65.84Q157.18 69.21 150.27 68.68L150.27 68.68L148.15 68.50Q118.41 68.85 84.96 77.00L84.96 77.00L84.25 77.53Q87.97 80.71 88.68 81.77L88.68 81.77Q88.85 82.31 89.03 82.66L89.03 82.66Q88.32 84.96 84.07 88.85L84.07 88.85Q82.66 90.27 81.95 91.16L81.95 91.16Q99.12 91.16 130.45 83.54L130.45 83.54L132.04 83.19Q133.63 82.66 135.41 82.66L135.41 82.66Q142.31 82.66 148.50 90.62L148.50 90.62Q148.50 92.57 145.14 96.47L145.14 96.47L143.55 98.77Q141.78 102.31 136.64 121.78L136.64 121.78Q129.92 146.38 121.60 153.64L121.60 153.64Q117.70 157.00 113.10 157.53L113.10 157.53Q110.63 156.65 108.32 151.69L108.32 151.69Q107.26 149.74 106.73 148.68L106.73 148.68L101.07 140.18L101.07 138.95L111.69 140.89Q115.93 141.07 118.24 138.95L118.24 138.95Q122.31 135.41 127.79 116.29L127.79 116.29Q134.17 93.99 130.27 90.80L130.27 90.80Q128.50 90.80 114.70 92.39L114.70 92.39L112.22 92.75L111.69 93.28Q117.00 95.40 117.88 98.41L117.88 98.41Q118.06 98.94 118.06 99.30L118.06 99.30Q118.06 100.36 114.52 104.25L114.52 104.25Q114.34 104.61 114.16 104.78L114.16 104.78Q95.40 130.98 83.54 141.42L83.54 141.42Q71.51 152.04 61.95 152.57L61.95 152.57L61.95 152.04Q82.30 135.05 90.45 125.67L90.45 125.67Q105.49 108.50 105.49 94.34L105.49 94.34Q97.53 94.87 89.56 97.70L89.56 97.70Q92.39 100.71 92.39 104.61L92.39 104.61L79.83 117.88Q70.09 126.91 61.06 127.97L61.06 127.97L61.06 126.91Q74.34 116.11 78.94 109.92L78.94 109.92Q83.19 104.08 84.25 98.24L84.25 98.24Q81.60 98.06 78.94 95.23L78.94 95.23Q69.91 103.55 66.20 105.67L66.20 105.67Q61.42 108.50 56.64 109.03L56.64 109.03L56.64 107.97Q67.44 98.06 69.38 96.11L69.38 96.11Q76.82 87.62 77.70 79.47L77.70 79.47L66.91 80.89L66.73 80.89Q61.95 78.59 61.24 77.35L61.24 77.35Q60.89 76.64 60.71 75.93L60.71 75.93L61.60 75.23L114.16 65.31Q123.19 63.72 131.51 61.60L131.51 61.60L140.18 59.12L140.89 59.12Q146.56 58.41 152.40 61.77L152.40 61.77Q155.41 63.54 157.18 65.84ZM67.44 58.41L67.44 58.41Q67.44 60.53 66.20 61.07L66.20 61.07L48.14 67.08L47.44 86.73L54.16 86.73Q57.35 87.08 58.59 87.97L58.59 87.97Q60.53 89.39 61.24 92.57L61.24 92.57L61.06 94.52Q60.53 95.23 59.47 95.23L59.47 95.23L56.82 94.87L56.64 94.87Q50.45 92.04 47.79 89.74L47.79 89.74Q46.37 94.34 46.37 131.51L46.37 131.51Q46.55 140.01 46.37 143.19L46.37 143.19Q46.02 148.33 41.95 152.04L41.95 152.04L40.89 152.75Q37.52 151.69 35.40 143.37L35.40 143.37Q35.40 143.02 35.22 142.66L35.22 142.66Q33.63 136.47 37.17 121.60L37.17 121.60Q39.29 112.75 39.47 108.68L39.47 108.68L40.00 83.19Q26.20 109.56 7.61 124.43L7.61 124.43Q6.19 124.43 5.66 123.90L5.66 123.90Q7.79 120.18 16.64 108.50L16.64 108.50Q18.41 106.02 19.65 104.08L19.65 104.08Q33.45 83.37 37.88 70.45L37.88 70.45L23.19 72.92Q15.40 73.46 12.57 70.09L12.57 70.09Q12.92 69.03 15.75 67.97L15.75 67.97L24.78 66.02L41.24 61.60Q41.24 60.36 41.24 42.83L41.24 42.83Q41.24 29.74 38.23 23.19L38.23 23.19L35.58 18.41Q35.40 17.35 35.40 15.58L35.40 15.58Q36.82 13.98 41.24 14.87L41.24 14.87L50.09 21.06Q51.68 22.48 52.21 24.07L52.21 24.07L52.57 26.90L52.57 27.08Q52.39 28.50 50.80 33.81L50.80 33.81L50.09 36.82Q48.67 44.96 48.32 58.59L48.32 58.59Q57.17 55.22 60.53 55.58L60.53 55.58Q64.07 55.93 67.44 58.41Z" stroke="#000" fill="black" /></svg>