<?xml version="1.0" encoding="UTF-8" standalone="no"?>
        <svg 
    viewBox="1.8310546875 -86.0595703125 445.166015625 56.9091796875"
    width="443.3349609375"
    height="142.96875"
   xmlns="http://www.w3.org/2000/svg"
   xmlns:svg="http://www.w3.org/2000/svg">
   <path d="M24.46-90.01L24.46-127.95L50.98-125.39Q50.76-123.71 49.69-122.61Q48.63-121.51 45.48-121.07L45.48-121.07L45.48-91.48L52.66-103.34Q52.66-103.34 55.19-100.78Q57.71-98.22 61.08-94.67Q64.45-91.11 66.87-88.18L66.87-88.18Q66.21-85.77 62.84-85.77L62.84-85.77L45.48-85.77L45.48-73.68Q55.15-71.19 60.24-67.42Q65.33-63.65 67.02-59.69L67.02-59.69L121.36-59.69L127.81-68.26Q125.90-67.90 123.45-67.64Q121.00-67.38 118.21-67.38L118.21-67.38L114.33-67.38L114.33-73.17L88.33-73.17L88.33-70.02Q88.33-69.07 83.86-67.31Q79.39-65.55 71.56-65.55L71.56-65.55L67.82-65.55L67.82-125.54L89.87-117.33L113.67-117.33L123.63-128.39L141.72-114.62Q141.06-113.60 139.78-112.90Q138.50-112.21 135.86-111.77L135.86-111.77L135.86-71.56Q135.86-71.04 133.23-69.87L133.23-69.87Q135.79-67.75 140.00-64.27Q144.21-60.79 147.44-57.93L147.44-57.93Q146.78-55.52 143.26-55.52L143.26-55.52L96.90-55.52Q93.31-49.44 88.04-43.95L88.04-43.95L120.12-43.95L130.37-53.54L147.73-39.18Q145.97-37.13 141.72-36.33L141.72-36.33Q140.99-21.61 139.64-12.56Q138.28-3.52 135.90 1.54Q133.52 6.59 129.57 9.30L129.57 9.30Q122.61 14.14 111.18 14.14L111.18 14.14Q111.25 9.74 110.82 6.26Q110.38 2.78 109.06 0.88L109.06 0.88Q107.67-1.10 105.58-2.60Q103.49-4.10 99.90-5.13L99.90-5.13Q87.89 6.23 69.73 14.43L69.73 14.43L68.41 12.45Q81.37 2.86 89.43-10.62Q97.49-24.10 101.37-39.77L101.37-39.77Q94.63-26.73 82.69-16.44Q70.75-6.15 55.37 1.03L55.37 1.03L53.83-1.03Q63.21-8.28 70.39-18.09Q77.56-27.91 82.18-38.38L82.18-38.38Q75.88-33.11 68.23-28.71Q60.57-24.32 52.08-20.87L52.08-20.87L50.83-22.78Q59.03-29.08 65.19-37.72Q71.34-46.36 75.29-55.52L75.29-55.52L68.12-55.52Q68.26-51.49 65.70-48.74Q63.13-46.00 59.22-45.74Q55.30-45.48 51.27-49.07L51.27-49.07Q51.05-54.42 49.33-59.99Q47.61-65.55 45.48-70.17L45.48-70.17L45.48 8.42Q45.48 9.23 42.92 10.62Q40.36 12.01 36.47 13.15Q32.59 14.28 28.64 14.28L28.64 14.28L24.46 14.28L24.46-43.80Q19.92-37.65 14.69-32.08Q9.45-26.51 3.44-21.61L3.44-21.61L1.83-23.07Q7.03-31.49 11.06-41.89Q15.09-52.29 18.02-63.54Q20.95-74.78 22.78-85.77L22.78-85.77L6.88-85.77L5.71-90.01L24.46-90.01ZM121.36-37.94L121.36-37.94Q118.07-28.93 113.20-21.09Q108.33-13.26 101.51-6.59L101.51-6.59L111.47-6.30Q114.18-6.30 115.65-7.32L115.65-7.32Q117.70-9.01 119.13-16.33Q120.56-23.66 121.36-37.94ZM114.33-93.31L88.33-93.31L88.33-77.42L114.33-77.42L114.33-93.31ZM88.33-113.09L88.33-97.49L114.33-97.49L114.33-113.09L88.33-113.09ZM209.55-123.12L211.08-123.78Q219.73-120.70 224.38-116.78Q229.03-112.87 230.53-108.95Q232.03-105.03 231.08-101.77Q230.13-98.51 227.60-96.68Q225.07-94.85 221.74-95.10Q218.41-95.36 215.11-98.58L215.11-98.58Q215.19-104.88 213.43-111.47Q211.67-118.07 209.55-123.12L209.55-123.12ZM185.82-113.67L178.78-113.67L178.78-83.13L185.82-83.13L185.82-113.67ZM267.11-123.78L267.11-123.78L288.72-116.24Q288.43-114.99 287.04-114.07Q285.64-113.16 283.23-113.38L283.23-113.38Q279.86-109.50 273.82-103.71Q267.77-97.92 261.47-92.87L261.47-92.87L269.97-92.87L278.83-103.78Q278.83-103.78 281.62-101.70Q284.40-99.61 288.17-96.64Q291.94-93.68 295.02-91.04L295.02-91.04Q294.58-88.62 290.99-88.62L290.99-88.62L257.08-88.62Q259.72-83.79 263.34-79.65Q266.97-75.51 271.36-72.00L271.36-72.00L273.63-72.00L282.57-83.86Q282.57-83.86 285.39-81.59Q288.21-79.32 292.05-76.14Q295.90-72.95 298.97-70.17L298.97-70.17Q298.32-67.82 294.87-67.82L294.87-67.82L277.66-67.82Q287.40-61.89 298.83-59.40L298.83-59.40L298.68-57.71Q287.48-54.71 284.25-39.33L284.25-39.33Q275.83-44.38 270.04-51.38Q264.26-58.37 260.38-67.82L260.38-67.82L238.04-67.82Q236.72-65.70 235.18-63.65Q233.64-61.60 232.03-59.55L232.03-59.55L256.49-57.28Q256.13-55.52 254.88-54.42Q253.64-53.32 250.78-52.95L250.78-52.95Q250.56-49.44 250.20-46.00Q249.83-42.55 249.32-39.18L249.32-39.18L259.94-39.18L269.68-48.27L286.82-34.35Q285.21-32.52 280.96-31.64L280.96-31.64Q280.30-18.68 279.05-10.47Q277.81-2.27 275.65 2.42Q273.49 7.10 269.82 9.59L269.82 9.59Q266.46 11.87 262.10 13.00Q257.74 14.14 251.73 14.14L251.73 14.14Q251.81 9.96 251.37 6.63Q250.93 3.30 249.46 1.32L249.46 1.32Q246.39-2.56 239.14-4.47L239.14-4.47L239.14-6.30Q242.14-5.93 246.28-5.82Q250.42-5.71 252.32-5.71L252.32-5.71Q255.32-5.71 256.35-6.74L256.35-6.74Q258.25-8.20 259.42-15.05Q260.60-21.90 261.33-34.94L261.33-34.94L248.58-34.94Q246.46-24.61 241.52-15.34Q236.57-6.08 227.38 1.54Q218.19 9.16 203.25 14.58L203.25 14.58L202.22 12.89Q215.48 3.44 221.48-9.05Q227.49-21.53 229.03-34.94L229.03-34.94L212.99-34.94L211.67-39.18L229.47-39.18Q229.83-43.51 229.80-47.97Q229.76-52.44 229.47-56.69L229.47-56.69Q224.41-51.20 218.26-46.47Q212.11-41.75 204.57-37.94L204.57-37.94L204.57-7.03Q204.57-0.51 203.21 3.99Q201.86 8.50 197.42 11.10Q192.99 13.70 183.76 14.58L183.76 14.58Q183.62 9.96 183.22 6.37Q182.81 2.78 181.79 0.88L181.79 0.88Q180.76-1.25 179.08-2.71Q177.39-4.17 173.73-4.98L173.73-4.98L173.73-7.03Q173.73-7.03 175.74-6.92Q177.76-6.81 180.10-6.70Q182.45-6.59 183.47-6.59L183.47-6.59Q184.94-6.59 185.38-7.25Q185.82-7.91 185.82-9.16L185.82-9.16L185.82-43.51L178.34-43.51Q177.61-33.33 175.34-23.11Q173.07-12.89 168.13-3.37Q163.18 6.15 154.32 14.28L154.32 14.28L152.71 13.18Q156.81 1.90 158.39-11.32Q159.96-24.54 160.14-38.49Q160.33-52.44 160.33-65.99L160.33-65.99L160.33-125.39L181.64-117.92L184.50-117.92L192.63-127.08L209.40-113.96Q208.81-113.31 207.60-112.61Q206.40-111.91 204.57-111.47L204.57-111.47L204.57-41.24Q210.79-47.02 215.48-53.76Q220.17-60.50 223.83-67.82L223.83-67.82L206.40-67.82L205.22-72.00L225.59-72.00Q227.42-76.03 228.81-80.20Q230.20-84.38 231.30-88.62L231.30-88.62L208.52-88.62L207.28-92.87L232.32-92.87Q234.52-101.51 235.62-110.38Q236.72-119.24 237.16-127.81L237.16-127.81L262.65-123.49Q262.43-122.09 261.29-121.14Q260.16-120.19 257.23-119.82L257.23-119.82Q255.98-113.23 254.26-106.42Q252.54-99.61 250.20-92.87L250.20-92.87L257.67-92.87Q259.57-97.78 261.47-103.60Q263.38-109.42 264.88-114.77Q266.38-120.12 267.11-123.78ZM185.82-78.88L178.78-78.88L178.78-65.99Q178.78-61.60 178.75-57.02Q178.71-52.44 178.49-47.68L178.49-47.68L185.82-47.68L185.82-78.88ZM254.37-88.62L248.73-88.62Q247.05-84.38 245.07-80.20Q243.09-76.03 240.75-72.00L240.75-72.00L258.76-72.00Q257.52-75.73 256.42-79.87Q255.32-84.01 254.37-88.62L254.37-88.62ZM418.80-81.01L418.80-109.06L402.47-109.06L402.47-81.01L418.80-81.01ZM382.98-65.99L382.98-113.23L382.98-121.07L405.47-113.23L417.33-113.23L426.42-123.63L445.17-109.06Q443.48-106.79 439.23-105.76L439.23-105.76L439.23-8.28Q439.23-1.61 437.55 3.04Q435.86 7.69 430.59 10.40Q425.32 13.11 414.48 14.14L414.48 14.14Q414.11 9.38 413.42 5.86Q412.72 2.34 411.04 0.29L411.04 0.29Q409.28-1.83 406.75-3.48Q404.22-5.13 398.73-6.15L398.73-6.15L398.73-7.98Q398.73-7.98 400.89-7.84Q403.05-7.69 406.13-7.54Q409.20-7.40 411.95-7.29Q414.70-7.18 415.80-7.18L415.80-7.18Q417.63-7.18 418.21-7.95Q418.80-8.72 418.80-10.18L418.80-10.18L418.80-43.36L401.73-43.36Q400.71-33.11 397.85-22.89Q395.00-12.67 388.84-3.30Q382.69 6.08 372.00 13.77L372.00 13.77L370.53 12.89Q376.61 1.61 379.21-11.50Q381.81-24.61 382.40-38.49Q382.98-52.37 382.98-65.99L382.98-65.99ZM418.80-47.53L418.80-76.83L402.47-76.83L402.47-65.99Q402.47-61.52 402.39-56.91Q402.32-52.29 402.03-47.53L402.03-47.53L418.80-47.53ZM350.98-81.01L350.98-109.06L336.33-109.06L336.33-81.01L350.98-81.01ZM316.77-64.97L316.77-113.23L316.77-121.07L339.33-113.23L349.51-113.23L358.67-123.63L377.42-109.06Q375.66-106.79 371.41-105.76L371.41-105.76L371.41-10.18Q371.41-3.52 369.76 1.10Q368.12 5.71 362.84 8.42Q357.57 11.13 346.80 12.01L346.80 12.01Q346.58 7.25 345.89 3.81Q345.19 0.37 343.65-1.68L343.65-1.68Q342.04-3.81 339.55-5.46Q337.06-7.10 331.64-8.13L331.64-8.13L331.64-9.89Q331.64-9.89 333.73-9.78Q335.82-9.67 338.75-9.52Q341.67-9.38 344.31-9.27Q346.95-9.16 347.97-9.16L347.97-9.16Q349.80-9.16 350.39-9.92Q350.98-10.69 350.98-12.16L350.98-12.16L350.98-43.36L335.52-43.36Q334.57-33.03 331.57-22.78Q328.56-12.52 322.12-3.15Q315.67 6.23 304.32 13.92L304.32 13.92L303.00 12.89Q309.59 1.83 312.49-11.02Q315.38-23.88 316.08-37.57Q316.77-51.27 316.77-64.97L316.77-64.97ZM350.98-47.53L350.98-76.83L336.33-76.83L336.33-65.11Q336.33-60.79 336.25-56.43Q336.18-52.08 335.82-47.53L335.82-47.53L350.98-47.53Z"/>
    </svg>
        